<svg xmlns="http://www.w3.org/2000/svg" viewBox="0 0 512 512">
<path fill="#3C6" d="M0 0h512v512H0z"/>
<path fill="#FFF" stroke="#FFF" stroke-width="2" d="M276 146v7c-33 42-82 69-147 79-58 16-83 46-76 91 2 11 5 22 9 32-16 14-16 34 0 61 3 6 3 12 0 18-4 11-8 10-6 12 11 6 26 7 38 0l-2 7c-8 4-26 4-38 0-8-3-4-12-4-13 0 0 11-12 6-22-6-9-23-41-2-66-12-29-13-55-1-78 17-35 63-48 98-54 22-3 70-20 125-74Zm126 186c11 20 22 49 32 87l15 12h1c7 5 12 9 9 16-2 11-64 9-64 3l13-2c12 2 26 1 34 0 5-1 8-3 9-5l-24-20c0-10-9-37-28-80l3-11Zm-4-172c24 101 11 169-31 215l39 53-49-49h-4c-7 0-11-1-11-2 0 0 5-3 16-6 40-39 52-102 40-178l-4-18 4-15ZM128 355c6 10 9 18 7 25l39 39 24 1 16 3c-2 3-7 3-17 1-1 2-9 2-25 2l-45-43v-8c4-1 5-8 1-20Zm80-74-3 29c19 24 45 42 79 55 0 7 2 15 8 24l-3 27c5 3 45 1 45-3 0-2-4-9-13-21 8 2 15 8 20 19l4 6c-8 10-57 8-61 7-3-1-4-3-4-5l4-24c-4-7-7-16-10-26-36-16-62-35-77-56l11-32Zm-52 61c30 3 51 16 76 37l28-10 7 3-36 17c-52-47-96-53-129-17-5 12-8 17-10 17 0 9 1 15 3 18-5-7-8-13-8-19 0-8 9-13 9-20s31-28 60-26Zm-1 14 11 4c9 15 18 30 25 46l-36-50Zm13-293 13 7c-9 38-39 39-41 39 18-10 29-23 33-39-80 50-120 97-96 167l-5 4c-30-63 2-122 96-178Zm117 52 4 9c2 56 13 88 37 92 24 5 44-17 62-76l7-2c-15 62-38 91-69 88-31-4-45-41-41-111Zm51-59c16 0 34 4 54 13h1l78 2v12l-81 33 16-13 58-26h-78c-14-8-30-12-48-12-19 0-36 9-51 27l-72 13 68-20c15-19 33-29 55-29Z"/>
</svg>