<svg xmlns="http://www.w3.org/2000/svg" viewBox="0 0 1000 640">
  <path fill="#23292F" stroke="#23292F" stroke-width="2" d="M278.1 157v5.3c-26.3 34-65.5 55.3-117.5 63.8C114.3 239 94 263 99.7 298.4c1.5 9.2 4 17.7 7.5 25.5-12.8 11.4-12.8 27.7 0 49a18 18 0 0 1 0 14.8c-3.5 8.3-6.4 7.5-5.3 9.6a34.9 34.9 0 0 0 31 0l-2.2 5.3a47.6 47.6 0 0 1-29.9 0c-7.4-2.5-3.2-10.6-3.2-10.6s8.5-9.6 4.3-17c-4.3-7.5-18.2-33-1-53.2-10-23.4-10.4-44.3-1.2-62.7 14-27.7 50.2-38.3 78-42.6 17.8-2.7 56.6-16 100.4-59.5Zm100.6 148.8a297.7 297.7 0 0 1 25.7 69.2l11.8 9.6c6.4 4.3 10.7 7.5 8.5 12.8-2.1 9.6-51.4 7.5-51.4 3.2l10.7-2.1c9.7 2.1 20.4 1 26.8 0 4.3-.7 6.8-2.2 7.5-4.3l-19.3-16c0-7.8-7.5-29-22.5-63.9l2.2-8.5Zm-3-137.6c19.3 81 8.5 135.5-24.5 171.7l31 42.7-39.5-39.5c-8 .1-12-.2-11.8-1a50 50 0 0 1 12.8-5.4c32-31.3 41.5-81.1 32-141.8l-3.1-15 3.2-11.7ZM160 324.2c4.9 7.8 6.6 14.6 5.2 20.2l31.7 31 19 1c2 0 6.3.7 12.6 2.1-1.4 2.1-6 2.5-13.7 1-.7 1.5-7.4 1.9-20 1.1l-35.9-34v-6.4c3.5-.7 3.9-6 1-16Zm63.4-59.2-2.1 23.5a149 149 0 0 0 63 43.9c0 5.7 2 12.1 6.3 19.2l-2.1 21.4c4.3 2.2 36.3 1.1 36.3-2.1 0-2.2-3.6-7.9-10.7-17.1 6.4 1.4 11.7 6.4 16 15l3.2 5.3c-6.4 7.5-45.9 6.4-49 5.3-2.2-.7-3.3-2.1-3.3-4.2l3.2-19.3a111 111 0 0 1-7.4-20.3c-29.2-12.8-49.8-27.8-61.9-45l8.5-25.6Zm-41 49c23.4 2.1 40.5 13 60.8 29.1l22.4-7.5 5.3 2.1-28.8 14c-42-38-76.4-42.8-103.5-14-3.5 9.4-6 14-7.4 14 0 7.3.7 12 2.1 14.1-4.3-5.8-6.4-10.8-6.4-15.1 0-3.2 1.8-5.8 3.6-8.3l.5-.7c1.8-2.4 3.4-4.7 3.4-7.2 0-5.4 24.5-22.7 48-20.5Zm-1.1 11 8.6 3.1a350.7 350.7 0 0 1 20.2 36.9c.3.6-9.3-12.7-28.8-40Zm10.1-234.4 10.7 5.3c-7.5 30.8-31.4 31.9-33.1 31.9 15-8.5 23.8-19.1 26.7-31.9-64 40.5-96.1 77.6-76.9 134l-4.3 3.1c-23.5-50.3 2.2-97.8 77-142.4Zm93.5 41.6 3.2 7.5c2.2 44.8 10.9 70.3 29.8 73.6 19.3 3.3 35.2-13.9 50-60.8l5.4-2.2c-12 49.8-30.5 73.3-55.4 70.5-24.8-2.9-35.8-32.4-33-88.6ZM326 85c12.7 0 27.3 3.6 43.7 10.7l62.9 1v9.6l-65 26.7 12.7-10.7a573 573 0 0 0 47-20.2h-63a73.3 73.3 0 0 0-38.4-9.6c-14.9 0-28.4 7-40.5 21.3a4101 4101 0 0 1-57.6 10.7l54.4-16A53.6 53.6 0 0 1 325.9 85Z"/>
  <path fill="#3C6" d="M100 552V445h31.4l24.4 76.3 24.8-76.3h31.3v107H190v-81.8L164.3 552h-17l-25.6-81.4V552H100Zm173.8 1.5a51.7 51.7 0 0 1-25-5.2 30.4 30.4 0 0 1-13.6-14.9c-2.8-6.4-4.2-14-4.2-22.9V445h22v67.1c0 8 2 13.9 5.8 17.5 3.8 3.7 8.8 5.5 15 5.5 4 0 7.7-.8 10.9-2.4a17 17 0 0 0 7.4-7.5 28 28 0 0 0 2.7-13V445h21.8v66.2c0 8.7-1.4 16.2-4.2 22.5a30.6 30.6 0 0 1-13.6 14.6 52 52 0 0 1-25 5.2ZM356.7 445v88.7h46.5V552h-68.3V445h21.8Zm123.5 0v19.2h-31.6V552h-21.7v-87.8h-32.3V445h85.6Zm11.5 107V445h21.6v107h-21.6Zm81.7-107a52 52 0 0 1 20.9 4c6.1 2.7 11 6.7 14.6 12a33.2 33.2 0 0 1 5.3 19.1 30.5 30.5 0 0 1-18 29.7 46 46 0 0 1-20 4h-20.5V552H534V445h39.5Zm96.9 0 38.2 107H687l-8.7-24.8h-38.6L631 552h-21.7l38.3-107h22.8Zm-11.4 20.8-14.3 42.5H673l-14.2-42.5Zm-83.7-4.2h-19.7V497h20a17.9 17.9 0 0 0 18.5-18c0-5.3-1.8-9.5-5.4-12.6a20 20 0 0 0-13.4-4.7Zm184.5 91.9c-10 0-18.5-2.3-25.8-7a45.5 45.5 0 0 1-16.7-19.5c-4-8.4-6-18.2-6-29.4a66 66 0 0 1 6-29 43 43 0 0 1 16.6-18.6 49.5 49.5 0 0 1 26-6.5 45 45 0 0 1 21.4 4.9 41 41 0 0 1 22.2 32h-22.7c-.7-3.7-2-7-3.8-9.8a19.7 19.7 0 0 0-17.8-9.3c-5 0-9.3 1.2-12.9 3.6a22.8 22.8 0 0 0-8.3 11.7A65.7 65.7 0 0 0 735 498c0 13.3 2.2 23 6.4 28.9 4.3 6 10.2 9 17.7 9 4.1 0 7.7-1 10.6-3a20 20 0 0 0 7.2-7.5c1.9-3.1 3.1-6.6 3.8-10.3h22.7c-.7 5-2 10-3.7 14.5a34.7 34.7 0 0 1-20.7 20.8 52.3 52.3 0 0 1-19.3 3.2Zm59.5-1.5V445h22.4v49l39-49h24.8l-32.5 41.4 36.4 65.6h-23.5l-28.4-49.8-15.8 19V552h-22.4Z"/>
</svg>